<?xml version="1.0" encoding="UTF-8"?> <svg xmlns="http://www.w3.org/2000/svg" id="Calque_1" version="1.1" viewBox="0 0 1126.84 139.83"><defs><style> .st0 { fill: #323234; } .st1 { fill: #fff; } .st2 { display: none; } </style></defs><g class="st2"><g><path class="st0" d="M5.66,124.99V4.67h18.05v52.45h51.57V4.67h18.05v120.32h-18.05v-51.72H23.71v51.72H5.66Z"></path><path class="st0" d="M160.11,126.71c-8.71,0-16.44-1.83-23.2-5.5s-12.03-8.82-15.81-15.47c-3.78-6.64-5.67-14.27-5.67-22.86V4.67h18.05v77.69c0,5.16,1.14,9.83,3.44,14.01,2.29,4.18,5.47,7.45,9.54,9.8,4.07,2.35,8.62,3.52,13.66,3.52s9.6-1.17,13.67-3.52c4.07-2.35,7.25-5.61,9.54-9.8,2.29-4.18,3.44-8.85,3.44-14.01V4.67h18.05v78.21c0,8.59-1.86,16.22-5.59,22.86-3.73,6.65-8.97,11.8-15.73,15.47s-14.55,5.5-23.38,5.5h-.01Z"></path><path class="st0" d="M418.08,104.49l-52.33-31.41h14.38c11.46,0,20.54-2.98,27.24-8.94,6.7-5.95,10.06-15.55,10.06-25.63,0-6.53-1.52-12.34-4.56-17.44s-7.39-9.11-13.06-12.03c-5.67-2.92-12.23-4.38-19.68-4.38h-50.19l-.16,121.2h18.05l.16-43.19,70.1,42.95v-21.14h-.01ZM347.98,21.68h29.91c6.19,0,11.11,1.66,14.78,4.98s5.5,7.56,5.5,12.72-1.83,9.54-5.5,12.8-8.59,4.9-14.78,4.9h-29.91V21.68Z"></path><path class="st0" d="M279.06,73.29c11.46,0,20.54-2.98,27.24-8.94,6.7-5.95,10.06-15.55,10.06-25.63,0-6.53-1.52-12.34-4.56-17.44s-7.39-9.11-13.06-12.03c-5.67-2.92-12.23-4.38-19.68-4.38h-50.19l-.16,121.2h18.05l.16-52.78h32.14ZM246.92,21.89h29.91c6.19,0,11.11,1.66,14.78,4.98s5.5,7.56,5.5,12.72-1.83,9.54-5.5,12.8-8.59,4.9-14.78,4.9h-29.91V21.89h0Z"></path></g><polygon class="st0" points="581.66 115.03 539.74 73.11 577.11 73.11 577.11 58.16 539.65 58.16 581.48 16.34 570.9 5.77 529.17 47.5 529.17 10.22 514.22 10.22 514.22 47.59 472.3 5.67 461.73 16.24 503.65 58.16 466.27 58.16 466.27 73.11 503.56 73.11 461.54 115.13 472.11 125.7 514.22 83.6 514.22 121.06 529.17 121.06 529.17 83.69 571.09 125.6 581.66 115.03"></polygon></g><g class="st2"><path class="st0" d="M712.99,38c-3.78,0-6.6-1.37-8.44-4.12-1.85-2.75-2.77-6.71-2.77-11.88s.92-9.13,2.77-11.88c1.85-2.75,4.66-4.12,8.44-4.12,1.42,0,2.64.19,3.68.58,1.03.38,1.92.9,2.66,1.55.74.65,1.36,1.38,1.86,2.19.5.81.94,1.63,1.33,2.46l-3.19,1.46c-.27-.68-.58-1.32-.93-1.93-.35-.61-.78-1.14-1.26-1.6-.49-.46-1.06-.82-1.73-1.09-.66-.27-1.47-.4-2.42-.4-2.45,0-4.28.93-5.47,2.79s-1.8,4.34-1.8,7.45v5.05c0,3.1.6,5.58,1.8,7.45,1.2,1.87,3.02,2.79,5.47,2.79.95,0,1.75-.13,2.42-.4s1.24-.63,1.73-1.09.91-.99,1.26-1.6c.35-.61.66-1.25.93-1.93l3.19,1.46c-.38.86-.83,1.68-1.33,2.48s-1.12,1.52-1.86,2.17c-.74.65-1.63,1.17-2.66,1.55-1.03.38-2.26.58-3.68.58v.03Z"></path><path class="st0" d="M738.96,38c-1.65,0-3.14-.28-4.45-.84-1.32-.56-2.44-1.37-3.37-2.42-.93-1.05-1.65-2.3-2.15-3.77-.5-1.46-.75-3.09-.75-4.9s.26-3.49.78-4.96c.52-1.48,1.23-2.74,2.15-3.79.92-1.05,2.02-1.85,3.3-2.42,1.29-.56,2.71-.84,4.28-.84s2.93.28,4.19.84,2.33,1.34,3.21,2.33c.89.99,1.57,2.16,2.04,3.52s.71,2.85.71,4.48v1.68h-16.93v1.06c0,1,.16,1.94.49,2.79s.79,1.6,1.4,2.22c.61.62,1.34,1.1,2.22,1.44.87.34,1.84.51,2.9.51,1.54,0,2.87-.35,3.99-1.06,1.12-.71,1.98-1.68,2.57-2.93l2.61,1.77c-.68,1.54-1.81,2.8-3.39,3.79s-3.51,1.48-5.78,1.48l-.02.02ZM738.74,16.99c-.98,0-1.88.18-2.7.53-.83.35-1.54.84-2.15,1.46-.61.62-1.08,1.35-1.42,2.19-.34.84-.51,1.77-.51,2.77v.31h13.12v-.49c0-1-.15-1.92-.46-2.75s-.74-1.54-1.29-2.15-1.21-1.07-2-1.4c-.78-.32-1.65-.49-2.59-.49v.02Z"></path><path class="st0" d="M756.2,37.46V14.59h3.55v3.72h.18c.24-.56.53-1.1.89-1.62.35-.52.79-.97,1.31-1.35s1.13-.69,1.84-.93,1.54-.35,2.48-.35c2.39,0,4.31.76,5.76,2.28s2.17,3.67,2.17,6.45v14.67h-3.55v-14.05c0-2.1-.46-3.66-1.37-4.68-.92-1.02-2.26-1.53-4.03-1.53-.71,0-1.4.09-2.08.27s-1.29.44-1.82.8c-.53.35-.96.81-1.29,1.37s-.49,1.21-.49,1.95v15.87h-3.55Z"></path><path class="st0" d="M792.85,37.46c-1.74,0-3.02-.49-3.83-1.46-.81-.97-1.22-2.23-1.22-3.76v-14.59h-7.62v-3.06h5.67c.77,0,1.31-.16,1.62-.47s.47-.85.47-1.62v-5.98h3.41v8.07h10.42v3.06h-10.42v16.75h10.42v3.06h-8.92Z"></path><path class="st0" d="M808.46,34.41h6.69v-16.75h-6.69v-3.06h10.24v5.76h.22c.47-1.8,1.37-3.21,2.68-4.23s2.99-1.53,5.03-1.53h3.19v3.55h-4.3c-2.04,0-3.69.59-4.94,1.77s-1.88,2.73-1.88,4.64v9.86h8.86v3.06h-19.1v-3.06h0Z"></path><path class="st0" d="M845.33,38c-1.65,0-3.14-.28-4.45-.84-1.32-.56-2.44-1.37-3.37-2.42-.93-1.05-1.65-2.3-2.15-3.77-.5-1.46-.75-3.09-.75-4.9s.26-3.49.78-4.96c.52-1.48,1.23-2.74,2.15-3.79.92-1.05,2.02-1.85,3.3-2.42,1.29-.56,2.71-.84,4.28-.84s2.93.28,4.19.84,2.33,1.34,3.21,2.33c.89.99,1.57,2.16,2.04,3.52s.71,2.85.71,4.48v1.68h-16.93v1.06c0,1,.16,1.94.49,2.79s.79,1.6,1.4,2.22c.61.62,1.34,1.1,2.22,1.44.87.34,1.84.51,2.9.51,1.54,0,2.87-.35,3.99-1.06,1.12-.71,1.98-1.68,2.57-2.93l2.61,1.77c-.68,1.54-1.81,2.8-3.39,3.79s-3.51,1.48-5.78,1.48l-.02.02ZM845.11,16.99c-.98,0-1.88.18-2.7.53-.83.35-1.54.84-2.15,1.46-.61.62-1.08,1.35-1.42,2.19-.34.84-.51,1.77-.51,2.77v.31h13.12v-.49c0-1-.15-1.92-.46-2.75s-.74-1.54-1.29-2.15-1.21-1.07-2-1.4c-.78-.32-1.65-.49-2.59-.49v.02Z"></path><path class="st0" d="M903.66,33.74h-.18c-1.48,2.84-3.83,4.25-7.05,4.25-2.81,0-5-1.05-6.58-3.15-1.58-2.1-2.37-5.04-2.37-8.82s.79-6.72,2.37-8.82,3.77-3.15,6.58-3.15c3.22,0,5.57,1.42,7.05,4.26h.18V4.67h3.55v32.8h-3.55v-3.72h0ZM897.81,34.85c.8,0,1.55-.1,2.26-.31.71-.21,1.33-.51,1.86-.91.53-.4.95-.89,1.26-1.46.31-.58.46-1.25.46-2.02v-8.24c0-.77-.15-1.44-.46-2.02s-.73-1.06-1.26-1.46c-.53-.4-1.15-.7-1.86-.91-.71-.21-1.46-.31-2.26-.31-2.07,0-3.67.63-4.81,1.88-1.14,1.26-1.71,2.92-1.71,4.99v3.9c0,2.07.57,3.73,1.71,4.99s2.74,1.88,4.81,1.88Z"></path><path class="st0" d="M925.11,38c-1.65,0-3.14-.28-4.45-.84-1.32-.56-2.44-1.37-3.37-2.42-.93-1.05-1.65-2.3-2.15-3.77-.5-1.46-.75-3.09-.75-4.9s.26-3.49.78-4.96c.52-1.48,1.23-2.74,2.15-3.79.92-1.05,2.02-1.85,3.3-2.42,1.29-.56,2.71-.84,4.28-.84s2.93.28,4.19.84,2.33,1.34,3.21,2.33c.89.99,1.57,2.16,2.04,3.52s.71,2.85.71,4.48v1.68h-16.93v1.06c0,1,.16,1.94.49,2.79s.79,1.6,1.4,2.22c.61.62,1.34,1.1,2.22,1.44.87.34,1.84.51,2.9.51,1.54,0,2.87-.35,3.99-1.06,1.12-.71,1.98-1.68,2.57-2.93l2.61,1.77c-.68,1.54-1.81,2.8-3.39,3.79s-3.51,1.48-5.78,1.48l-.02.02ZM924.89,16.99c-.98,0-1.88.18-2.7.53-.83.35-1.54.84-2.15,1.46-.61.62-1.08,1.35-1.42,2.19-.34.84-.51,1.77-.51,2.77v.31h13.12v-.49c0-1-.15-1.92-.46-2.75s-.74-1.54-1.29-2.15-1.21-1.07-2-1.4c-.78-.32-1.65-.49-2.59-.49v.02Z"></path><path class="st0" d="M702.08,78.83h6.69v-16.75h-6.69v-3.06h10.24v5.76h.22c.47-1.8,1.37-3.21,2.68-4.23s2.99-1.53,5.03-1.53h3.19v3.55h-4.3c-2.04,0-3.69.59-4.94,1.77-1.25,1.18-1.88,2.73-1.88,4.64v9.86h8.86v3.06h-19.1v-3.06h0Z"></path><path class="st0" d="M738.96,82.42c-1.65,0-3.14-.28-4.45-.84-1.32-.56-2.44-1.37-3.37-2.42-.93-1.05-1.65-2.3-2.15-3.77-.5-1.46-.75-3.09-.75-4.9s.26-3.49.78-4.96c.52-1.48,1.23-2.74,2.15-3.79.92-1.05,2.02-1.85,3.3-2.42,1.29-.56,2.71-.84,4.28-.84s2.93.28,4.19.84,2.33,1.34,3.21,2.33c.89.99,1.57,2.16,2.04,3.52.47,1.36.71,2.85.71,4.48v1.68h-16.93v1.06c0,1,.16,1.94.49,2.79s.79,1.6,1.4,2.22c.61.62,1.34,1.1,2.22,1.44.87.34,1.84.51,2.9.51,1.54,0,2.87-.35,3.99-1.06s1.98-1.68,2.57-2.93l2.61,1.77c-.68,1.54-1.81,2.8-3.39,3.79s-3.51,1.48-5.78,1.48l-.02.02ZM738.74,61.41c-.98,0-1.88.18-2.7.53-.83.35-1.54.84-2.15,1.46-.61.62-1.08,1.35-1.42,2.19-.34.84-.51,1.77-.51,2.77v.31h13.12v-.49c0-1-.15-1.92-.46-2.75s-.74-1.54-1.29-2.15-1.21-1.07-2-1.4c-.78-.32-1.65-.49-2.59-.49v.02Z"></path><path class="st0" d="M765.95,82.42c-1.66,0-3.12-.29-4.41-.86-1.29-.58-2.37-1.38-3.26-2.42-.89-1.03-1.56-2.29-2.02-3.77-.46-1.48-.69-3.12-.69-4.92s.24-3.44.71-4.92c.47-1.48,1.15-2.74,2.04-3.79.89-1.05,1.96-1.85,3.24-2.42,1.27-.56,2.72-.84,4.34-.84,2.22,0,4.02.49,5.41,1.46,1.39.97,2.41,2.25,3.06,3.81l-2.84,1.51c-.41-1.18-1.1-2.1-2.06-2.75s-2.15-.98-3.57-.98c-1.04,0-1.96.17-2.77.51s-1.5.82-2.06,1.44-.98,1.36-1.26,2.22-.42,1.79-.42,2.79v3.9c0,1,.14,1.94.42,2.79.28.86.7,1.6,1.26,2.22s1.26,1.1,2.08,1.44c.83.34,1.77.51,2.84.51,1.54,0,2.81-.35,3.81-1.06s1.8-1.68,2.39-2.93l2.53,1.73c-.68,1.54-1.74,2.81-3.17,3.81s-3.3,1.51-5.61,1.51h0Z"></path><path class="st0" d="M782.79,49.09h3.55v13.65h.18c.24-.56.53-1.1.89-1.62.35-.52.79-.97,1.31-1.35s1.13-.69,1.84-.93,1.54-.35,2.48-.35c2.39,0,4.31.76,5.76,2.28s2.17,3.67,2.17,6.45v14.67h-3.55v-14.05c0-2.1-.46-3.66-1.37-4.68-.92-1.02-2.26-1.53-4.03-1.53-.71,0-1.4.09-2.08.27s-1.29.44-1.82.8c-.53.35-.96.81-1.29,1.37-.33.56-.49,1.21-.49,1.95v15.87h-3.55v-32.8Z"></path><path class="st0" d="M818.74,82.42c-1.65,0-3.14-.28-4.45-.84-1.32-.56-2.44-1.37-3.37-2.42-.93-1.05-1.65-2.3-2.15-3.77-.5-1.46-.75-3.09-.75-4.9s.26-3.49.78-4.96c.52-1.48,1.23-2.74,2.15-3.79.92-1.05,2.02-1.85,3.3-2.42,1.29-.56,2.71-.84,4.28-.84s2.93.28,4.19.84,2.33,1.34,3.21,2.33c.89.99,1.57,2.16,2.04,3.52.47,1.36.71,2.85.71,4.48v1.68h-16.93v1.06c0,1,.16,1.94.49,2.79s.79,1.6,1.4,2.22c.61.62,1.34,1.1,2.22,1.44.87.34,1.84.51,2.9.51,1.54,0,2.87-.35,3.99-1.06s1.98-1.68,2.57-2.93l2.61,1.77c-.68,1.54-1.81,2.8-3.39,3.79s-3.51,1.48-5.78,1.48l-.02.02ZM818.52,61.41c-.98,0-1.88.18-2.7.53-.83.35-1.54.84-2.15,1.46-.61.62-1.08,1.35-1.42,2.19-.34.84-.51,1.77-.51,2.77v.31h13.12v-.49c0-1-.15-1.92-.46-2.75s-.74-1.54-1.29-2.15-1.21-1.07-2-1.4c-.78-.32-1.65-.49-2.59-.49v.02Z"></path><path class="st0" d="M835.05,78.83h6.69v-16.75h-6.69v-3.06h10.24v5.76h.22c.47-1.8,1.37-3.21,2.68-4.23s2.99-1.53,5.03-1.53h3.19v3.55h-4.3c-2.04,0-3.69.59-4.94,1.77-1.25,1.18-1.88,2.73-1.88,4.64v9.86h8.86v3.06h-19.1v-3.06h0Z"></path><path class="st0" d="M872.32,82.42c-1.66,0-3.12-.29-4.41-.86-1.29-.58-2.37-1.38-3.26-2.42-.89-1.03-1.56-2.29-2.02-3.77-.46-1.48-.69-3.12-.69-4.92s.24-3.44.71-4.92c.47-1.48,1.15-2.74,2.04-3.79.89-1.05,1.96-1.85,3.24-2.42,1.27-.56,2.72-.84,4.34-.84,2.22,0,4.02.49,5.41,1.46,1.39.97,2.41,2.25,3.06,3.81l-2.84,1.51c-.41-1.18-1.1-2.1-2.06-2.75s-2.15-.98-3.57-.98c-1.04,0-1.96.17-2.77.51s-1.5.82-2.06,1.44-.98,1.36-1.26,2.22-.42,1.79-.42,2.79v3.9c0,1,.14,1.94.42,2.79.28.86.7,1.6,1.26,2.22s1.26,1.1,2.08,1.44c.83.34,1.77.51,2.84.51,1.54,0,2.81-.35,3.81-1.06s1.8-1.68,2.39-2.93l2.53,1.73c-.68,1.54-1.74,2.81-3.17,3.81s-3.3,1.51-5.61,1.51h0Z"></path><path class="st0" d="M889.16,49.09h3.55v13.65h.18c.24-.56.53-1.1.89-1.62.35-.52.79-.97,1.31-1.35s1.13-.69,1.84-.93,1.54-.35,2.48-.35c2.39,0,4.31.76,5.76,2.28s2.17,3.67,2.17,6.45v14.67h-3.55v-14.05c0-2.1-.46-3.66-1.37-4.68-.92-1.02-2.26-1.53-4.03-1.53-.71,0-1.4.09-2.08.27s-1.29.44-1.82.8c-.53.35-.96.81-1.29,1.37-.33.56-.49,1.21-.49,1.95v15.87h-3.55v-32.8Z"></path><path class="st0" d="M925.11,82.42c-1.65,0-3.14-.28-4.45-.84-1.32-.56-2.44-1.37-3.37-2.42-.93-1.05-1.65-2.3-2.15-3.77-.5-1.46-.75-3.09-.75-4.9s.26-3.49.78-4.96c.52-1.48,1.23-2.74,2.15-3.79.92-1.05,2.02-1.85,3.3-2.42,1.29-.56,2.71-.84,4.28-.84s2.93.28,4.19.84,2.33,1.34,3.21,2.33c.89.99,1.57,2.16,2.04,3.52.47,1.36.71,2.85.71,4.48v1.68h-16.93v1.06c0,1,.16,1.94.49,2.79s.79,1.6,1.4,2.22c.61.62,1.34,1.1,2.22,1.44.87.34,1.84.51,2.9.51,1.54,0,2.87-.35,3.99-1.06s1.98-1.68,2.57-2.93l2.61,1.77c-.68,1.54-1.81,2.8-3.39,3.79s-3.51,1.48-5.78,1.48l-.02.02ZM924.89,61.41c-.98,0-1.88.18-2.7.53-.83.35-1.54.84-2.15,1.46-.61.62-1.08,1.35-1.42,2.19-.34.84-.51,1.77-.51,2.77v.31h13.12v-.49c0-1-.15-1.92-.46-2.75s-.74-1.54-1.29-2.15-1.21-1.07-2-1.4c-.78-.32-1.65-.49-2.59-.49v.02Z"></path><path class="st0" d="M978.16,82.42c-2.39,0-4.45-.41-6.18-1.22s-3.2-1.9-4.41-3.26l2.39-2.08c1.09,1.15,2.29,2.04,3.59,2.66s2.87.93,4.7.93,3.23-.32,4.37-.95c1.14-.64,1.71-1.63,1.71-2.99,0-.59-.11-1.09-.33-1.48s-.53-.72-.91-.95c-.38-.24-.81-.42-1.29-.55-.47-.13-.97-.24-1.51-.33l-3.59-.53c-.8-.12-1.66-.28-2.59-.49s-1.78-.54-2.55-1c-.77-.46-1.41-1.07-1.93-1.84s-.78-1.77-.78-3.01c0-1.15.23-2.15.69-2.99s1.1-1.55,1.93-2.13,1.8-1,2.93-1.29c1.12-.28,2.35-.42,3.68-.42,2.07,0,3.86.33,5.38.98,1.52.65,2.83,1.55,3.92,2.7l-2.31,2.17c-.27-.32-.6-.66-1-1s-.89-.65-1.46-.93c-.58-.28-1.25-.51-2.02-.69s-1.66-.27-2.66-.27c-1.8,0-3.18.31-4.14.93s-1.44,1.52-1.44,2.7c0,.59.11,1.09.33,1.48.22.4.52.72.91.95.38.24.82.42,1.31.55.49.13.98.24,1.48.33l3.59.53c.83.12,1.7.28,2.61.49.92.21,1.76.54,2.53,1s1.41,1.07,1.93,1.84.78,1.77.78,3.01c0,2.28-.88,4.03-2.64,5.27s-4.1,1.86-7.03,1.86v.02Z"></path><path class="st0" d="M1009.9,78.16h-.18c-.24.56-.53,1.1-.89,1.62-.35.52-.79.97-1.31,1.35s-1.13.69-1.84.93-1.54.35-2.48.35c-2.39,0-4.31-.76-5.76-2.28s-2.17-3.67-2.17-6.45v-14.67h3.55v14.05c0,2.1.46,3.66,1.37,4.68.92,1.02,2.26,1.53,4.03,1.53.71,0,1.4-.09,2.08-.27s1.29-.44,1.82-.8.96-.8,1.29-1.35c.32-.55.49-1.2.49-1.97v-15.87h3.55v22.87h-3.55v-3.72Z"></path><path class="st0" d="M1021.2,78.83h6.69v-16.75h-6.69v-3.06h10.24v5.76h.22c.47-1.8,1.37-3.21,2.68-4.23s2.99-1.53,5.03-1.53h3.19v3.55h-4.3c-2.04,0-3.69.59-4.94,1.77-1.25,1.18-1.88,2.73-1.88,4.64v9.86h8.86v3.06h-19.1v-3.06h0Z"></path><path class="st0" d="M1074.51,78.83h7.98v-26.68h-7.98v-3.06h11.52v29.74h7.98v3.06h-19.5v-3.06Z"></path><path class="st0" d="M1111.26,82.42c-1.65,0-3.14-.28-4.45-.84-1.32-.56-2.44-1.37-3.37-2.42-.93-1.05-1.65-2.3-2.15-3.77-.5-1.46-.75-3.09-.75-4.9s.26-3.49.78-4.96c.52-1.48,1.23-2.74,2.15-3.79s2.02-1.85,3.3-2.42c1.29-.56,2.71-.84,4.28-.84s2.93.28,4.19.84c1.26.56,2.33,1.34,3.21,2.33.89.99,1.57,2.16,2.04,3.52.47,1.36.71,2.85.71,4.48v1.68h-16.93v1.06c0,1,.16,1.94.49,2.79s.79,1.6,1.4,2.22,1.34,1.1,2.22,1.44c.87.34,1.84.51,2.9.51,1.54,0,2.87-.35,3.99-1.06s1.98-1.68,2.57-2.93l2.61,1.77c-.68,1.54-1.81,2.8-3.39,3.79s-3.51,1.48-5.78,1.48l-.02.02ZM1111.04,61.41c-.98,0-1.88.18-2.7.53-.83.35-1.54.84-2.15,1.46s-1.08,1.35-1.42,2.19c-.34.84-.51,1.77-.51,2.77v.31h13.12v-.49c0-1-.15-1.92-.46-2.75-.31-.83-.74-1.54-1.29-2.15s-1.21-1.07-2-1.4c-.78-.32-1.65-.49-2.59-.49v.02Z"></path><path class="st0" d="M702.88,103.43h3.55v3.72h.18c1.48-2.84,3.83-4.26,7.05-4.26,2.81,0,5,1.05,6.58,3.15s2.37,5.04,2.37,8.82-.79,6.72-2.37,8.82-3.78,3.15-6.58,3.15c-3.22,0-5.57-1.42-7.05-4.25h-.18v12.59h-3.55v-31.73h0ZM712.28,123.69c2.07,0,3.67-.63,4.81-1.88,1.14-1.26,1.71-2.92,1.71-4.99v-3.9c0-2.07-.57-3.73-1.71-4.99-1.14-1.26-2.74-1.88-4.81-1.88-.8,0-1.55.1-2.26.31s-1.33.51-1.86.91c-.53.4-.95.89-1.26,1.46s-.47,1.25-.47,2.02v8.24c0,.77.16,1.44.47,2.02.31.58.73,1.06,1.26,1.46s1.15.7,1.86.91c.71.21,1.46.31,2.26.31Z"></path><path class="st0" d="M738.56,126.83c-1.6,0-3.04-.28-4.32-.84s-2.38-1.37-3.28-2.42c-.9-1.05-1.59-2.3-2.06-3.77-.47-1.46-.71-3.11-.71-4.94s.24-3.44.71-4.92c.47-1.48,1.16-2.74,2.06-3.79s2-1.85,3.28-2.42c1.29-.56,2.73-.84,4.32-.84s3.04.28,4.32.84c1.29.56,2.38,1.37,3.28,2.42.9,1.05,1.59,2.31,2.06,3.79s.71,3.12.71,4.92-.24,3.48-.71,4.94c-.47,1.46-1.16,2.72-2.06,3.77-.9,1.05-2,1.85-3.28,2.42s-2.73.84-4.32.84ZM738.56,123.78c1.98,0,3.58-.59,4.79-1.77,1.21-1.18,1.82-3.01,1.82-5.5v-3.28c0-2.48-.61-4.31-1.82-5.5-1.21-1.18-2.81-1.77-4.79-1.77s-3.58.59-4.79,1.77c-1.21,1.18-1.82,3.01-1.82,5.5v3.28c0,2.48.61,4.31,1.82,5.5,1.21,1.18,2.81,1.77,4.79,1.77Z"></path><path class="st0" d="M766.26,126.3c-1.74,0-3.02-.49-3.83-1.46s-1.22-2.23-1.22-3.76v-14.59h-7.62v-3.06h5.67c.77,0,1.31-.16,1.62-.47s.47-.85.47-1.62v-5.98h3.41v8.07h10.42v3.06h-10.42v16.75h10.42v3.06h-8.92Z"></path><path class="st0" d="M792.14,126.83c-1.65,0-3.14-.28-4.45-.84-1.32-.56-2.44-1.37-3.37-2.42-.93-1.05-1.65-2.3-2.15-3.77-.5-1.46-.75-3.09-.75-4.9s.26-3.49.78-4.96c.52-1.48,1.23-2.74,2.15-3.79.92-1.05,2.02-1.85,3.3-2.42,1.29-.56,2.71-.84,4.28-.84s2.93.28,4.19.84,2.33,1.34,3.21,2.33c.89.99,1.57,2.16,2.04,3.52.47,1.36.71,2.85.71,4.48v1.68h-16.93v1.06c0,1,.16,1.94.49,2.79s.79,1.6,1.4,2.22c.61.62,1.34,1.1,2.22,1.44.87.34,1.84.51,2.9.51,1.54,0,2.87-.35,3.99-1.06s1.98-1.68,2.57-2.93l2.61,1.77c-.68,1.54-1.81,2.8-3.39,3.79s-3.51,1.48-5.78,1.48l-.02.02ZM791.92,105.83c-.98,0-1.88.18-2.7.53-.83.35-1.54.84-2.15,1.46-.61.62-1.08,1.35-1.42,2.19-.34.84-.51,1.77-.51,2.77v.31h13.12v-.49c0-1-.15-1.92-.46-2.75s-.74-1.54-1.29-2.15-1.21-1.07-2-1.4c-.78-.32-1.65-.49-2.59-.49v.02Z"></path><path class="st0" d="M809.39,126.3v-22.87h3.55v3.72h.18c.24-.56.53-1.1.89-1.62.35-.52.79-.97,1.31-1.35s1.13-.69,1.84-.93,1.54-.35,2.48-.35c2.39,0,4.31.76,5.76,2.28s2.17,3.67,2.17,6.45v14.67h-3.55v-14.05c0-2.1-.46-3.66-1.37-4.68-.92-1.02-2.26-1.53-4.03-1.53-.71,0-1.4.09-2.08.27s-1.29.44-1.82.8c-.53.35-.96.81-1.29,1.37s-.49,1.21-.49,1.95v15.87s-3.55,0-3.55,0Z"></path><path class="st0" d="M846.04,126.3c-1.74,0-3.02-.49-3.83-1.46s-1.22-2.23-1.22-3.76v-14.59h-7.62v-3.06h5.67c.77,0,1.31-.16,1.62-.47s.47-.85.47-1.62v-5.98h3.41v8.07h10.42v3.06h-10.42v16.75h10.42v3.06h-8.92Z"></path><path class="st0" d="M862.93,123.24h8.24v-16.75h-8.24v-3.06h11.79v19.81h7.71v3.06h-19.5v-3.06ZM872.94,98.38c-1.04,0-1.76-.21-2.17-.64s-.62-.97-.62-1.62v-.71c0-.65.21-1.19.62-1.62s1.14-.64,2.17-.64,1.76.21,2.17.64.62.97.62,1.62v.71c0,.65-.21,1.19-.62,1.62s-1.14.64-2.17.64Z"></path><path class="st0" d="M898.52,126.83c-1.65,0-3.14-.28-4.45-.84-1.32-.56-2.44-1.37-3.37-2.42-.93-1.05-1.65-2.3-2.15-3.77-.5-1.46-.75-3.09-.75-4.9s.26-3.49.78-4.96c.52-1.48,1.23-2.74,2.15-3.79.92-1.05,2.02-1.85,3.3-2.42,1.29-.56,2.71-.84,4.28-.84s2.93.28,4.19.84,2.33,1.34,3.21,2.33c.89.99,1.57,2.16,2.04,3.52.47,1.36.71,2.85.71,4.48v1.68h-16.93v1.06c0,1,.16,1.94.49,2.79s.79,1.6,1.4,2.22c.61.62,1.34,1.1,2.22,1.44.87.34,1.84.51,2.9.51,1.54,0,2.87-.35,3.99-1.06s1.98-1.68,2.57-2.93l2.61,1.77c-.68,1.54-1.81,2.8-3.39,3.79s-3.51,1.48-5.78,1.48l-.02.02ZM898.29,105.83c-.98,0-1.88.18-2.7.53-.83.35-1.54.84-2.15,1.46-.61.62-1.08,1.35-1.42,2.19-.34.84-.51,1.77-.51,2.77v.31h13.12v-.49c0-1-.15-1.92-.46-2.75s-.74-1.54-1.29-2.15-1.21-1.07-2-1.4c-.78-.32-1.65-.49-2.59-.49v.02Z"></path><path class="st0" d="M914.96,123.24h7.98v-26.68h-7.98v-3.06h11.52v29.74h7.98v3.06h-19.5v-3.06Z"></path><path class="st0" d="M968.94,93.5h3.55v13.65h.18c.24-.56.53-1.1.89-1.62.35-.52.79-.97,1.31-1.35s1.13-.69,1.84-.93,1.54-.35,2.48-.35c2.39,0,4.31.76,5.76,2.28s2.17,3.67,2.17,6.45v14.67h-3.55v-14.05c0-2.1-.46-3.66-1.37-4.68-.92-1.02-2.26-1.53-4.03-1.53-.71,0-1.4.09-2.08.27s-1.29.44-1.82.8c-.53.35-.96.81-1.29,1.37s-.49,1.21-.49,1.95v15.87h-3.55v-32.8Z"></path><path class="st0" d="M1009.9,122.58h-.18c-.24.56-.53,1.1-.89,1.62-.35.52-.79.97-1.31,1.35s-1.13.69-1.84.93-1.54.35-2.48.35c-2.39,0-4.31-.76-5.76-2.28s-2.17-3.67-2.17-6.45v-14.67h3.55v14.05c0,2.1.46,3.66,1.37,4.68.92,1.02,2.26,1.53,4.03,1.53.71,0,1.4-.09,2.08-.27s1.29-.44,1.82-.8.96-.8,1.29-1.35c.32-.55.49-1.2.49-1.97v-15.87h3.55v22.87h-3.55v-3.72Z"></path><path class="st0" d="M1020.18,126.3v-22.87h3.28v2.66h.18c.35-.89.86-1.64,1.51-2.26s1.61-.93,2.88-.93,2.32.33,2.97,1c.65.66,1.05,1.53,1.2,2.59h.13c.41-1.03,1-1.89,1.77-2.57s1.83-1.02,3.19-1.02c1.86,0,3.11.65,3.75,1.95.64,1.3.95,3.16.95,5.58v15.87h-3.28v-15.29c0-1.95-.2-3.3-.6-4.06s-1.13-1.13-2.19-1.13c-.95,0-1.71.3-2.31.91-.59.61-.89,1.53-.89,2.77v16.8h-3.28v-15.29c0-1.95-.2-3.3-.6-4.06-.4-.75-1.12-1.13-2.15-1.13-.95,0-1.72.3-2.33.91s-.91,1.53-.91,2.77v16.8h-3.28.01Z"></path><path class="st0" d="M1066.32,126.3c-1.39,0-2.38-.35-2.97-1.06s-.96-1.6-1.11-2.66h-.22c-.5,1.33-1.31,2.37-2.42,3.12s-2.59,1.13-4.45,1.13c-2.39,0-4.3-.62-5.72-1.86-1.42-1.24-2.13-2.94-2.13-5.1s.78-3.77,2.33-4.92c1.55-1.15,4.06-1.73,7.51-1.73h4.88v-2.25c0-1.67-.47-2.93-1.42-3.77-.95-.84-2.29-1.26-4.03-1.26-1.54,0-2.79.3-3.77.91-.97.61-1.76,1.43-2.35,2.46l-2.39-1.77c.3-.59.69-1.17,1.2-1.74.5-.57,1.12-1.07,1.86-1.5.74-.44,1.58-.78,2.53-1.03s1.99-.38,3.15-.38c2.69,0,4.82.68,6.4,2.04,1.58,1.36,2.37,3.26,2.37,5.68v12.62h3.19v3.06h-2.44ZM1055.77,123.86c.92,0,1.75-.11,2.5-.33s1.41-.52,1.97-.89c.56-.37,1-.81,1.31-1.33.31-.52.46-1.07.46-1.66v-3.77h-4.88c-2.13,0-3.68.3-4.65.89s-1.46,1.45-1.46,2.57v.93c0,1.18.42,2.08,1.26,2.68.84.61,2,.91,3.48.91h.01Z"></path><path class="st0" d="M1075.67,123.24h8.24v-16.75h-8.24v-3.06h11.79v19.81h7.71v3.06h-19.5v-3.06ZM1085.68,98.38c-1.04,0-1.76-.21-2.17-.64s-.62-.97-.62-1.62v-.71c0-.65.21-1.19.62-1.62s1.14-.64,2.17-.64,1.76.21,2.17.64.62.97.62,1.62v.71c0,.65-.21,1.19-.62,1.62s-1.14.64-2.17.64Z"></path><path class="st0" d="M1101.91,126.3v-22.87h3.55v3.72h.18c.24-.56.53-1.1.89-1.62.35-.52.79-.97,1.31-1.35s1.13-.69,1.84-.93,1.54-.35,2.48-.35c2.39,0,4.31.76,5.76,2.28s2.17,3.67,2.17,6.45v14.67h-3.55v-14.05c0-2.1-.46-3.66-1.37-4.68-.92-1.02-2.26-1.53-4.03-1.53-.71,0-1.4.09-2.08.27-.68.18-1.29.44-1.82.8-.53.35-.96.81-1.29,1.37s-.49,1.21-.49,1.95v15.87h-3.55Z"></path></g><g><g><g><path class="st1" d="M6.66,124.99V4.67h18.05v52.45h51.57V4.67h18.05v120.32h-18.05v-51.72H24.71v51.72H6.66Z"></path><path class="st1" d="M161.11,126.71c-8.71,0-16.44-1.83-23.2-5.5-6.76-3.67-12.03-8.82-15.81-15.47-3.78-6.64-5.67-14.27-5.67-22.86V4.67h18.05v77.69c0,5.16,1.14,9.83,3.44,14.01,2.29,4.18,5.47,7.45,9.54,9.8,4.07,2.35,8.62,3.52,13.66,3.52s9.6-1.17,13.67-3.52c4.07-2.35,7.25-5.61,9.54-9.8,2.29-4.18,3.44-8.85,3.44-14.01V4.67h18.05v78.21c0,8.59-1.86,16.22-5.59,22.86-3.73,6.65-8.97,11.8-15.73,15.47-6.76,3.67-14.55,5.5-23.38,5.5Z"></path><path class="st1" d="M419.08,104.5l-52.33-31.41h14.38c11.46,0,20.54-2.98,27.24-8.94,6.7-5.95,10.06-15.55,10.06-25.63,0-6.53-1.52-12.34-4.56-17.44-3.04-5.1-7.39-9.11-13.06-12.03-5.67-2.92-12.23-4.38-19.68-4.38h-50.19l-.16,121.2h18.05l.16-43.19,70.1,42.95v-21.14ZM348.98,21.68h29.91c6.19,0,11.11,1.66,14.78,4.98,3.67,3.32,5.5,7.56,5.5,12.72s-1.83,9.54-5.5,12.8c-3.67,3.26-8.59,4.9-14.78,4.9h-29.91V21.68Z"></path><path class="st1" d="M280.06,73.29c11.46,0,20.54-2.98,27.24-8.94,6.7-5.95,10.06-15.55,10.06-25.63,0-6.53-1.52-12.34-4.56-17.44-3.04-5.1-7.39-9.11-13.06-12.03-5.67-2.92-12.23-4.38-19.68-4.38h-50.19l-.16,121.2h18.05l.16-52.78h32.14ZM247.92,21.89h29.91c6.19,0,11.11,1.66,14.78,4.98,3.67,3.32,5.5,7.56,5.5,12.72s-1.83,9.54-5.5,12.8c-3.67,3.26-8.59,4.9-14.78,4.9h-29.91V21.89Z"></path></g><polygon class="st1" points="582.66 115.04 540.74 73.12 578.11 73.12 578.11 58.17 540.65 58.17 582.48 16.34 571.9 5.77 530.17 47.51 530.17 10.22 515.22 10.22 515.22 47.6 473.3 5.68 462.73 16.25 504.65 58.17 467.27 58.17 467.27 73.12 504.56 73.12 462.54 115.13 473.12 125.7 515.22 83.6 515.22 121.06 530.17 121.06 530.17 83.69 572.09 125.61 582.66 115.04"></polygon></g><g><path class="st1" d="M706.95,36.82h-3.72V5.89h11.26c2.87,0,5.05.78,6.56,2.35,1.51,1.57,2.26,3.75,2.26,6.56,0,2.51-.65,4.52-1.95,6.03-1.3,1.51-3.19,2.38-5.67,2.61l7.89,13.39h-4.17l-7.53-13.21h-4.92v13.21ZM714.39,20.47c1.57,0,2.78-.39,3.66-1.17.87-.78,1.31-1.9,1.31-3.35v-2.3c0-1.45-.44-2.56-1.31-3.35-.87-.78-2.09-1.17-3.66-1.17h-7.45v11.35h7.45Z"></path><path class="st1" d="M739.52,37.36c-1.66,0-3.14-.28-4.45-.84-1.32-.56-2.44-1.37-3.37-2.42-.93-1.05-1.65-2.3-2.15-3.77-.5-1.46-.75-3.09-.75-4.9s.26-3.49.78-4.96c.52-1.48,1.23-2.74,2.15-3.79.92-1.05,2.02-1.85,3.3-2.42,1.29-.56,2.71-.84,4.28-.84s2.93.28,4.19.84c1.26.56,2.33,1.34,3.21,2.33.89.99,1.57,2.17,2.04,3.52.47,1.36.71,2.85.71,4.48v1.68h-16.93v1.06c0,1,.16,1.94.49,2.79.33.86.79,1.6,1.4,2.22s1.34,1.1,2.22,1.44c.87.34,1.84.51,2.9.51,1.54,0,2.87-.35,3.99-1.06,1.12-.71,1.98-1.68,2.57-2.93l2.62,1.77c-.68,1.54-1.81,2.8-3.39,3.79-1.58.99-3.51,1.49-5.78,1.49ZM739.3,16.35c-.97,0-1.88.18-2.7.53-.83.35-1.54.84-2.15,1.46s-1.08,1.35-1.42,2.19c-.34.84-.51,1.77-.51,2.77v.31h13.12v-.49c0-1-.16-1.92-.46-2.75-.31-.83-.74-1.54-1.29-2.15-.55-.61-1.21-1.07-1.99-1.4-.78-.33-1.65-.49-2.59-.49Z"></path><path class="st1" d="M765.98,37.36c-2.39,0-4.45-.41-6.18-1.22-1.73-.81-3.2-1.9-4.41-3.26l2.39-2.08c1.09,1.15,2.29,2.04,3.59,2.66,1.3.62,2.87.93,4.7.93s3.23-.32,4.37-.95c1.14-.64,1.71-1.63,1.71-2.99,0-.59-.11-1.09-.33-1.48s-.52-.72-.91-.95c-.38-.24-.81-.42-1.29-.55s-.97-.24-1.51-.33l-3.59-.53c-.8-.12-1.66-.28-2.59-.49-.93-.21-1.78-.54-2.55-1-.77-.46-1.41-1.07-1.93-1.84-.52-.77-.78-1.77-.78-3.01,0-1.15.23-2.15.69-2.99.46-.84,1.1-1.55,1.93-2.13.83-.58,1.8-1,2.92-1.29s2.35-.42,3.68-.42c2.07,0,3.86.33,5.38.98,1.52.65,2.83,1.55,3.92,2.7l-2.3,2.17c-.27-.32-.6-.66-1-1-.4-.34-.89-.65-1.46-.93-.58-.28-1.25-.51-2.02-.69-.77-.18-1.66-.27-2.66-.27-1.8,0-3.18.31-4.14.93s-1.44,1.52-1.44,2.7c0,.59.11,1.09.33,1.48s.52.72.91.95c.38.24.82.42,1.31.55s.98.24,1.48.33l3.59.53c.83.12,1.7.28,2.61.49.92.21,1.76.54,2.53,1,.77.46,1.41,1.07,1.93,1.84.52.77.78,1.77.78,3.01,0,2.28-.88,4.03-2.64,5.27-1.76,1.24-4.1,1.86-7.02,1.86Z"></path><path class="st1" d="M792.71,37.36c-1.66,0-3.14-.28-4.45-.84-1.32-.56-2.44-1.37-3.37-2.42-.93-1.05-1.65-2.3-2.15-3.77-.5-1.46-.75-3.09-.75-4.9s.26-3.49.78-4.96c.52-1.48,1.23-2.74,2.15-3.79.92-1.05,2.02-1.85,3.3-2.42,1.29-.56,2.71-.84,4.28-.84s2.93.28,4.19.84c1.26.56,2.33,1.34,3.21,2.33.89.99,1.57,2.17,2.04,3.52.47,1.36.71,2.85.71,4.48v1.68h-16.93v1.06c0,1,.16,1.94.49,2.79.33.86.79,1.6,1.4,2.22s1.34,1.1,2.22,1.44c.87.34,1.84.51,2.9.51,1.54,0,2.87-.35,3.99-1.06,1.12-.71,1.98-1.68,2.57-2.93l2.62,1.77c-.68,1.54-1.81,2.8-3.39,3.79-1.58.99-3.51,1.49-5.78,1.49ZM792.49,16.35c-.97,0-1.88.18-2.7.53-.83.35-1.54.84-2.15,1.46s-1.08,1.35-1.42,2.19c-.34.84-.51,1.77-.51,2.77v.31h13.12v-.49c0-1-.16-1.92-.46-2.75-.31-.83-.74-1.54-1.29-2.15-.55-.61-1.21-1.07-1.99-1.4-.78-.33-1.65-.49-2.59-.49Z"></path><path class="st1" d="M827.55,36.82c-1.39,0-2.38-.35-2.97-1.06-.59-.71-.96-1.6-1.11-2.66h-.22c-.5,1.33-1.31,2.37-2.42,3.12-1.11.75-2.59,1.13-4.45,1.13-2.39,0-4.3-.62-5.72-1.86-1.42-1.24-2.13-2.94-2.13-5.1s.78-3.77,2.33-4.92c1.55-1.15,4.06-1.73,7.51-1.73h4.88v-2.25c0-1.67-.47-2.93-1.42-3.77-.95-.84-2.29-1.26-4.03-1.26-1.54,0-2.79.3-3.77.91-.97.61-1.76,1.43-2.35,2.46l-2.39-1.77c.29-.59.69-1.17,1.2-1.74.5-.57,1.12-1.07,1.86-1.5.74-.44,1.58-.78,2.53-1.03.95-.25,1.99-.38,3.15-.38,2.69,0,4.82.68,6.4,2.04,1.58,1.36,2.37,3.26,2.37,5.68v12.62h3.19v3.06h-2.44ZM817,34.39c.92,0,1.75-.11,2.5-.33.75-.22,1.41-.52,1.97-.89.56-.37,1-.81,1.31-1.33.31-.52.46-1.07.46-1.66v-3.77h-4.88c-2.13,0-3.68.3-4.65.89-.98.59-1.46,1.45-1.46,2.57v.93c0,1.18.42,2.08,1.26,2.68.84.61,2,.91,3.48.91Z"></path><path class="st1" d="M835.61,33.76h6.69v-16.75h-6.69v-3.06h10.24v5.76h.22c.47-1.8,1.37-3.21,2.68-4.23s2.99-1.53,5.03-1.53h3.19v3.55h-4.3c-2.04,0-3.69.59-4.94,1.77-1.26,1.18-1.88,2.73-1.88,4.64v9.86h8.86v3.06h-19.1v-3.06Z"></path><path class="st1" d="M872.89,37.36c-1.66,0-3.12-.29-4.41-.86s-2.37-1.38-3.26-2.42c-.89-1.03-1.56-2.29-2.02-3.77-.46-1.48-.69-3.12-.69-4.92s.24-3.44.71-4.92c.47-1.48,1.15-2.74,2.04-3.79.89-1.05,1.96-1.85,3.24-2.42,1.27-.56,2.72-.84,4.34-.84,2.22,0,4.02.49,5.41,1.46s2.41,2.25,3.06,3.81l-2.84,1.51c-.41-1.18-1.1-2.1-2.06-2.75-.96-.65-2.15-.98-3.57-.98-1.03,0-1.96.17-2.77.51-.81.34-1.5.82-2.06,1.44s-.98,1.36-1.26,2.22c-.28.86-.42,1.79-.42,2.79v3.9c0,1,.14,1.94.42,2.79.28.86.7,1.6,1.26,2.22s1.26,1.1,2.08,1.44c.83.34,1.77.51,2.84.51,1.54,0,2.81-.35,3.81-1.06,1-.71,1.8-1.68,2.39-2.93l2.53,1.73c-.68,1.54-1.74,2.81-3.17,3.81-1.43,1-3.3,1.51-5.61,1.51Z"></path><path class="st1" d="M889.73,4.03h3.55v13.65h.18c.24-.56.53-1.1.89-1.62.35-.52.79-.97,1.31-1.35.52-.38,1.13-.69,1.84-.93.71-.24,1.54-.35,2.48-.35,2.39,0,4.31.76,5.76,2.28,1.45,1.52,2.17,3.67,2.17,6.45v14.67h-3.55v-14.05c0-2.1-.46-3.66-1.37-4.68-.92-1.02-2.26-1.53-4.03-1.53-.71,0-1.4.09-2.08.27-.68.18-1.29.44-1.82.8-.53.35-.96.81-1.29,1.37-.33.56-.49,1.21-.49,1.95v15.87h-3.55V4.03Z"></path><path class="st1" d="M713.55,82.35c-3.78,0-6.6-1.37-8.44-4.12-1.85-2.75-2.77-6.71-2.77-11.88s.92-9.13,2.77-11.88c1.85-2.75,4.66-4.12,8.44-4.12,1.42,0,2.64.19,3.68.58,1.03.38,1.92.9,2.66,1.55.74.65,1.36,1.38,1.86,2.19.5.81.95,1.63,1.33,2.46l-3.19,1.46c-.27-.68-.58-1.32-.93-1.93-.35-.61-.78-1.14-1.26-1.6s-1.06-.82-1.73-1.09-1.47-.4-2.42-.4c-2.45,0-4.28.93-5.47,2.79-1.2,1.86-1.79,4.34-1.79,7.45v5.05c0,3.1.6,5.58,1.79,7.44,1.2,1.86,3.02,2.79,5.47,2.79.95,0,1.75-.13,2.42-.4s1.24-.63,1.73-1.09c.49-.46.91-.99,1.26-1.6.36-.61.67-1.25.93-1.93l3.19,1.46c-.38.86-.83,1.68-1.33,2.48-.5.8-1.12,1.52-1.86,2.17-.74.65-1.63,1.17-2.66,1.55-1.03.38-2.26.58-3.68.58Z"></path><path class="st1" d="M739.52,82.35c-1.66,0-3.14-.28-4.45-.84-1.32-.56-2.44-1.37-3.37-2.42-.93-1.05-1.65-2.3-2.15-3.77s-.75-3.09-.75-4.9.26-3.49.78-4.96c.52-1.48,1.23-2.74,2.15-3.79.92-1.05,2.02-1.85,3.3-2.42,1.29-.56,2.71-.84,4.28-.84s2.93.28,4.19.84c1.26.56,2.33,1.34,3.21,2.33.89.99,1.57,2.16,2.04,3.52s.71,2.85.71,4.48v1.68h-16.93v1.06c0,1,.16,1.94.49,2.79.33.86.79,1.6,1.4,2.22s1.34,1.1,2.22,1.44c.87.34,1.84.51,2.9.51,1.54,0,2.87-.35,3.99-1.06,1.12-.71,1.98-1.68,2.57-2.93l2.62,1.77c-.68,1.54-1.81,2.8-3.39,3.79-1.58.99-3.51,1.49-5.78,1.49ZM739.3,61.35c-.97,0-1.88.18-2.7.53-.83.35-1.54.84-2.15,1.46-.61.62-1.08,1.35-1.42,2.19s-.51,1.77-.51,2.77v.31h13.12v-.49c0-1-.16-1.92-.46-2.75-.31-.83-.74-1.54-1.29-2.15s-1.21-1.07-1.99-1.4c-.78-.32-1.65-.49-2.59-.49Z"></path><path class="st1" d="M756.77,81.82v-22.87h3.55v3.72h.18c.24-.56.53-1.1.89-1.62.35-.52.79-.97,1.31-1.35.52-.38,1.13-.69,1.84-.93s1.54-.35,2.48-.35c2.39,0,4.31.76,5.76,2.28,1.45,1.52,2.17,3.67,2.17,6.45v14.67h-3.55v-14.05c0-2.1-.46-3.66-1.37-4.68-.92-1.02-2.26-1.53-4.03-1.53-.71,0-1.4.09-2.08.27-.68.18-1.29.44-1.82.8s-.96.81-1.29,1.37c-.33.56-.49,1.21-.49,1.95v15.87h-3.55Z"></path><path class="st1" d="M793.42,81.82c-1.74,0-3.02-.49-3.83-1.46-.81-.97-1.22-2.23-1.22-3.76v-14.59h-7.62v-3.06h5.67c.77,0,1.31-.16,1.62-.46.31-.31.46-.85.46-1.62v-5.98h3.41v8.07h10.42v3.06h-10.42v16.75h10.42v3.06h-8.91Z"></path><path class="st1" d="M809.02,78.76h6.69v-16.75h-6.69v-3.06h10.24v5.76h.22c.47-1.8,1.37-3.21,2.68-4.23s2.99-1.53,5.03-1.53h3.19v3.55h-4.3c-2.04,0-3.69.59-4.94,1.77-1.26,1.18-1.88,2.73-1.88,4.64v9.86h8.86v3.06h-19.1v-3.06Z"></path><path class="st1" d="M845.9,82.35c-1.66,0-3.14-.28-4.45-.84-1.32-.56-2.44-1.37-3.37-2.42-.93-1.05-1.65-2.3-2.15-3.77s-.75-3.09-.75-4.9.26-3.49.78-4.96c.52-1.48,1.23-2.74,2.15-3.79.92-1.05,2.02-1.85,3.3-2.42,1.29-.56,2.71-.84,4.28-.84s2.93.28,4.19.84c1.26.56,2.33,1.34,3.21,2.33.89.99,1.57,2.16,2.04,3.52s.71,2.85.71,4.48v1.68h-16.93v1.06c0,1,.16,1.94.49,2.79.33.86.79,1.6,1.4,2.22s1.34,1.1,2.22,1.44c.87.34,1.84.51,2.9.51,1.54,0,2.87-.35,3.99-1.06,1.12-.71,1.98-1.68,2.57-2.93l2.62,1.77c-.68,1.54-1.81,2.8-3.39,3.79-1.58.99-3.51,1.49-5.78,1.49ZM845.67,61.35c-.97,0-1.88.18-2.7.53-.83.35-1.54.84-2.15,1.46-.61.62-1.08,1.35-1.42,2.19s-.51,1.77-.51,2.77v.31h13.12v-.49c0-1-.16-1.92-.46-2.75-.31-.83-.74-1.54-1.29-2.15s-1.21-1.07-1.99-1.4c-.78-.32-1.65-.49-2.59-.49Z"></path><path class="st1" d="M889.07,78.76h7.71v-16.75h-8.16v-3.06h8.16v-4.7c0-1.54.41-2.79,1.22-3.77.81-.98,2.09-1.46,3.83-1.46h7.67v3.06h-9.17v6.87h9.17v3.06h-9.17v16.75h8.16v3.06h-19.41v-3.06Z"></path><path class="st1" d="M925.28,82.35c-1.6,0-3.04-.28-4.32-.84-1.29-.56-2.38-1.37-3.28-2.42s-1.59-2.3-2.06-3.77c-.47-1.46-.71-3.11-.71-4.94s.24-3.44.71-4.92c.47-1.48,1.16-2.74,2.06-3.79.9-1.05,1.99-1.85,3.28-2.42,1.29-.56,2.73-.84,4.32-.84s3.04.28,4.32.84c1.29.56,2.38,1.37,3.28,2.42.9,1.05,1.59,2.31,2.06,3.79.47,1.48.71,3.12.71,4.92s-.24,3.48-.71,4.94c-.47,1.46-1.16,2.72-2.06,3.77s-1.99,1.85-3.28,2.42c-1.29.56-2.73.84-4.32.84ZM925.28,79.3c1.98,0,3.57-.59,4.79-1.77,1.21-1.18,1.82-3.01,1.82-5.5v-3.28c0-2.48-.61-4.31-1.82-5.5-1.21-1.18-2.81-1.77-4.79-1.77s-3.58.59-4.79,1.77c-1.21,1.18-1.82,3.01-1.82,5.5v3.28c0,2.48.61,4.31,1.82,5.5,1.21,1.18,2.81,1.77,4.79,1.77Z"></path><path class="st1" d="M941.99,78.76h6.69v-16.75h-6.69v-3.06h10.24v5.76h.22c.47-1.8,1.37-3.21,2.68-4.23s2.99-1.53,5.03-1.53h3.19v3.55h-4.3c-2.04,0-3.69.59-4.94,1.77-1.26,1.18-1.88,2.73-1.88,4.64v9.86h8.86v3.06h-19.1v-3.06Z"></path><path class="st1" d="M718.56,112.77h-12.06v14.05h-3.72v-30.94h3.72v13.65h12.06v-13.65h3.72v30.94h-3.72v-14.05Z"></path><path class="st1" d="M744.53,123.1h-.18c-.24.56-.53,1.1-.89,1.62-.35.52-.79.97-1.31,1.35-.52.38-1.13.7-1.84.93-.71.24-1.54.35-2.48.35-2.39,0-4.31-.76-5.76-2.28-1.45-1.52-2.17-3.67-2.17-6.45v-14.67h3.55v14.05c0,2.1.46,3.66,1.37,4.68.92,1.02,2.26,1.53,4.03,1.53.71,0,1.4-.09,2.08-.27s1.29-.44,1.82-.8c.53-.35.96-.8,1.29-1.35s.49-1.2.49-1.97v-15.87h3.54v22.87h-3.54v-3.72Z"></path><path class="st1" d="M754.82,126.82v-22.87h3.28v2.66h.18c.35-.89.86-1.64,1.51-2.26.65-.62,1.61-.93,2.88-.93s2.32.33,2.97,1c.65.67,1.05,1.53,1.2,2.59h.13c.41-1.03,1-1.89,1.77-2.57.77-.68,1.83-1.02,3.19-1.02,1.86,0,3.11.65,3.75,1.95.63,1.3.95,3.16.95,5.58v15.87h-3.28v-15.29c0-1.95-.2-3.3-.6-4.06-.4-.75-1.13-1.13-2.19-1.13-.95,0-1.71.3-2.3.91-.59.61-.89,1.53-.89,2.77v16.8h-3.28v-15.29c0-1.95-.2-3.3-.6-4.06-.4-.75-1.12-1.13-2.15-1.13-.95,0-1.72.3-2.33.91-.61.61-.91,1.53-.91,2.77v16.8h-3.28Z"></path><path class="st1" d="M800.95,126.82c-1.39,0-2.38-.35-2.97-1.06-.59-.71-.96-1.6-1.11-2.66h-.22c-.5,1.33-1.31,2.37-2.42,3.12-1.11.75-2.59,1.13-4.45,1.13-2.39,0-4.3-.62-5.72-1.86-1.42-1.24-2.13-2.94-2.13-5.1s.78-3.77,2.33-4.92c1.55-1.15,4.06-1.73,7.51-1.73h4.88v-2.25c0-1.67-.47-2.93-1.42-3.77-.95-.84-2.29-1.26-4.03-1.26-1.54,0-2.79.3-3.77.91-.97.61-1.76,1.43-2.35,2.46l-2.39-1.77c.29-.59.69-1.17,1.2-1.74.5-.57,1.12-1.07,1.86-1.5.74-.44,1.58-.78,2.53-1.04.95-.25,1.99-.38,3.15-.38,2.69,0,4.82.68,6.4,2.04,1.58,1.36,2.37,3.26,2.37,5.69v12.61h3.19v3.06h-2.44ZM790.41,124.39c.92,0,1.75-.11,2.5-.33.75-.22,1.41-.52,1.97-.89.56-.37,1-.81,1.31-1.33.31-.52.46-1.07.46-1.66v-3.77h-4.88c-2.13,0-3.68.3-4.65.89-.98.59-1.46,1.45-1.46,2.57v.93c0,1.18.42,2.08,1.26,2.68.84.61,2,.91,3.48.91Z"></path><path class="st1" d="M809.95,126.82v-22.87h3.55v3.72h.18c.24-.56.53-1.1.89-1.62.35-.52.79-.97,1.31-1.35.52-.38,1.13-.69,1.84-.93s1.54-.35,2.48-.35c2.39,0,4.31.76,5.76,2.28,1.45,1.52,2.17,3.67,2.17,6.45v14.67h-3.55v-14.05c0-2.1-.46-3.66-1.37-4.68-.92-1.02-2.26-1.53-4.03-1.53-.71,0-1.4.09-2.08.27-.68.18-1.29.44-1.82.8s-.96.81-1.29,1.37c-.33.56-.49,1.21-.49,1.95v15.87h-3.55Z"></path><path class="st1" d="M862.78,126.82v-30.94h11.26c2.87,0,5.05.78,6.56,2.35,1.51,1.57,2.26,3.75,2.26,6.56s-.75,4.99-2.26,6.56c-1.51,1.57-3.69,2.35-6.56,2.35h-7.54v13.12h-3.72ZM866.51,110.47h7.45c1.57,0,2.78-.39,3.66-1.17.87-.78,1.31-1.9,1.31-3.35v-2.3c0-1.45-.44-2.56-1.31-3.35-.87-.78-2.09-1.17-3.66-1.17h-7.45v11.35Z"></path><path class="st1" d="M898.68,127.35c-1.6,0-3.04-.28-4.32-.84-1.29-.56-2.38-1.37-3.28-2.42s-1.59-2.3-2.06-3.77c-.47-1.46-.71-3.11-.71-4.94s.24-3.44.71-4.92c.47-1.48,1.16-2.74,2.06-3.79.9-1.05,1.99-1.85,3.28-2.42,1.29-.56,2.73-.84,4.32-.84s3.04.28,4.32.84c1.29.56,2.38,1.37,3.28,2.42.9,1.05,1.59,2.31,2.06,3.79.47,1.48.71,3.12.71,4.92s-.24,3.48-.71,4.94c-.47,1.46-1.16,2.72-2.06,3.77s-1.99,1.85-3.28,2.42c-1.29.56-2.73.84-4.32.84ZM898.68,124.3c1.98,0,3.57-.59,4.79-1.77,1.21-1.18,1.82-3.01,1.82-5.5v-3.28c0-2.48-.61-4.31-1.82-5.5-1.21-1.18-2.81-1.77-4.79-1.77s-3.58.59-4.79,1.77c-1.21,1.18-1.82,3.01-1.82,5.5v3.28c0,2.48.61,4.31,1.82,5.5,1.21,1.18,2.81,1.77,4.79,1.77Z"></path><path class="st1" d="M926.38,126.82c-1.74,0-3.02-.49-3.83-1.46-.81-.97-1.22-2.23-1.22-3.76v-14.59h-7.62v-3.06h5.67c.77,0,1.31-.16,1.62-.46.31-.31.46-.85.46-1.62v-5.98h3.41v8.07h10.42v3.06h-10.42v16.75h10.42v3.06h-8.91Z"></path><path class="st1" d="M952.27,127.35c-1.66,0-3.14-.28-4.45-.84-1.32-.56-2.44-1.37-3.37-2.42-.93-1.05-1.65-2.3-2.15-3.77s-.75-3.09-.75-4.9.26-3.49.78-4.96c.52-1.48,1.23-2.74,2.15-3.79.92-1.05,2.02-1.85,3.3-2.42,1.29-.56,2.71-.84,4.28-.84s2.93.28,4.19.84c1.26.56,2.33,1.34,3.21,2.33.89.99,1.57,2.16,2.04,3.52s.71,2.85.71,4.48v1.68h-16.93v1.06c0,1,.16,1.94.49,2.79.33.86.79,1.6,1.4,2.22s1.34,1.1,2.22,1.44c.87.34,1.84.51,2.9.51,1.54,0,2.87-.35,3.99-1.06,1.12-.71,1.98-1.68,2.57-2.93l2.62,1.77c-.68,1.54-1.81,2.8-3.39,3.79-1.58.99-3.51,1.49-5.78,1.49ZM952.05,106.35c-.97,0-1.88.18-2.7.53-.83.35-1.54.84-2.15,1.46-.61.62-1.08,1.35-1.42,2.19s-.51,1.77-.51,2.77v.31h13.12v-.49c0-1-.16-1.92-.46-2.75-.31-.83-.74-1.54-1.29-2.15s-1.21-1.07-1.99-1.4c-.78-.32-1.65-.49-2.59-.49Z"></path><path class="st1" d="M969.51,126.82v-22.87h3.55v3.72h.18c.24-.56.53-1.1.89-1.62.35-.52.79-.97,1.31-1.35.52-.38,1.13-.69,1.84-.93s1.54-.35,2.48-.35c2.39,0,4.31.76,5.76,2.28,1.45,1.52,2.17,3.67,2.17,6.45v14.67h-3.55v-14.05c0-2.1-.46-3.66-1.37-4.68-.92-1.02-2.26-1.53-4.03-1.53-.71,0-1.4.09-2.08.27-.68.18-1.29.44-1.82.8s-.96.81-1.29,1.37c-.33.56-.49,1.21-.49,1.95v15.87h-3.55Z"></path><path class="st1" d="M1006.16,126.82c-1.74,0-3.02-.49-3.83-1.46-.81-.97-1.22-2.23-1.22-3.76v-14.59h-7.62v-3.06h5.67c.77,0,1.31-.16,1.62-.46.31-.31.46-.85.46-1.62v-5.98h3.41v8.07h10.42v3.06h-10.42v16.75h10.42v3.06h-8.91Z"></path><path class="st1" d="M1023.05,123.76h8.24v-16.75h-8.24v-3.06h11.79v19.81h7.71v3.06h-19.5v-3.06ZM1033.07,98.9c-1.04,0-1.76-.21-2.17-.64-.41-.43-.62-.97-.62-1.62v-.71c0-.65.21-1.19.62-1.62.41-.43,1.14-.64,2.17-.64s1.76.21,2.17.64c.41.43.62.97.62,1.62v.71c0,.65-.21,1.19-.62,1.62-.41.43-1.14.64-2.17.64Z"></path><path class="st1" d="M1066.88,126.82c-1.39,0-2.38-.35-2.97-1.06-.59-.71-.96-1.6-1.11-2.66h-.22c-.5,1.33-1.31,2.37-2.42,3.12-1.11.75-2.59,1.13-4.45,1.13-2.39,0-4.3-.62-5.72-1.86-1.42-1.24-2.13-2.94-2.13-5.1s.78-3.77,2.33-4.92c1.55-1.15,4.06-1.73,7.51-1.73h4.88v-2.25c0-1.67-.47-2.93-1.42-3.77-.95-.84-2.29-1.26-4.03-1.26-1.54,0-2.79.3-3.77.91-.97.61-1.76,1.43-2.35,2.46l-2.39-1.77c.29-.59.69-1.17,1.2-1.74.5-.57,1.12-1.07,1.86-1.5.74-.44,1.58-.78,2.53-1.04.95-.25,1.99-.38,3.15-.38,2.69,0,4.82.68,6.4,2.04,1.58,1.36,2.37,3.26,2.37,5.69v12.61h3.19v3.06h-2.44ZM1056.33,124.39c.92,0,1.75-.11,2.5-.33.75-.22,1.41-.52,1.97-.89.56-.37,1-.81,1.31-1.33.31-.52.46-1.07.46-1.66v-3.77h-4.88c-2.13,0-3.68.3-4.65.89-.98.59-1.46,1.45-1.46,2.57v.93c0,1.18.42,2.08,1.26,2.68.84.61,2,.91,3.48.91Z"></path><path class="st1" d="M1075.08,123.76h7.98v-26.68h-7.98v-3.06h11.52v29.74h7.98v3.06h-19.5v-3.06Z"></path></g></g></svg> 