<?xml version="1.0" encoding="UTF-8"?> <svg xmlns="http://www.w3.org/2000/svg" xmlns:xlink="http://www.w3.org/1999/xlink" width="143.677" height="31.685" viewBox="0 0 143.677 31.685"><defs><clipPath id="clip-path"><rect id="Rectangle_54" data-name="Rectangle 54" width="104.358" height="31.168" fill="#fff"></rect></clipPath><clipPath id="clip-path-2"><rect id="Rectangle_55" data-name="Rectangle 55" width="31.677" height="31.582" fill="#fff"></rect></clipPath></defs><g id="Groupe_6461" data-name="Groupe 6461" transform="translate(-32 -51.898)"><g id="Groupe_6382" data-name="Groupe 6382" transform="translate(-54)"><g id="Groupe_6288" data-name="Groupe 6288" transform="translate(86 51.898)"><g id="Groupe_6286" data-name="Groupe 6286" transform="translate(0 0)" clip-path="url(#clip-path)"><path id="Tracé_2" data-name="Tracé 2" d="M141.366,0c.151.1.291.255.454.282A8.383,8.383,0,0,1,148.4,5.353a2,2,0,0,1,.161.832,40.23,40.23,0,0,1-.148,5.788,5.882,5.882,0,0,1-3.335,4.14,11.47,11.47,0,0,1-5.729,1.291,16.245,16.245,0,0,0-2.988.181c.453.323.886.676,1.361.963q4.294,2.592,8.6,5.157c.618.37,1.252.713,1.847,1.116a.971.971,0,0,1,.425.635c.036,1.623.019,3.247.019,5.083L131.515,20.065l-.26.151V30.731c-1.575,0-2.985.01-4.393-.018-.12,0-.3-.248-.335-.407a3.412,3.412,0,0,1-.019-.772q0-14.379,0-28.76c0-.258-.016-.516-.025-.773h14.886m-9.941,4.363v8.973h.754c2.3,0,4.6.025,6.9-.014a6.92,6.92,0,0,0,2.1-.322,4.291,4.291,0,0,0,2.467-5.9A4.71,4.71,0,0,0,139.325,4.4c-2.6-.133-5.21-.034-7.9-.034" transform="translate(-44.761 0)" fill="#fff"></path><path id="Tracé_4" data-name="Tracé 4" d="M22.556,0V30.694c-1.45,0-2.835.01-4.218-.018-.122,0-.3-.244-.344-.4a2.573,2.573,0,0,1-.027-.693c0-3.771-.016-7.543.007-11.314,0-.644-.133-.9-.851-.9q-5.7.052-11.391,0c-.715-.007-.87.257-.867.9.018,3.8.008,7.594.008,11.391v.986H.255C.238,30.459.2,30.263.2,30.066Q.2,15.226.2.386C.2.257.218.129.227,0H4.879V13.281H17.961v-.9q0-5.187,0-10.374c0-.669-.037-1.337-.057-2.006Z" transform="translate(-0.072 0)" fill="#fff"></path><path id="Tracé_5" data-name="Tracé 5" d="M46.638,0q-.014,6.973-.025,13.946c0,2.04-.041,4.082.041,6.119a6.371,6.371,0,0,0,4.2,6.184c3.846,1.427,8.414-.325,9.1-5.06a52.167,52.167,0,0,0,.247-7.022c.032-4.416.008-8.833.013-13.25,0-.306.047-.613.072-.919h4.652c-.008,5.555.008,11.109-.039,16.663a37.962,37.962,0,0,1-.336,5.774,9.862,9.862,0,0,1-4.268,6.719c-2.654,1.839-5.651,2.11-8.7,1.788A9.875,9.875,0,0,1,43.115,25.1a11.008,11.008,0,0,1-1.1-4.255C41.914,13.9,41.981,6.949,41.986,0Z" transform="translate(-14.85 0)" fill="#fff"></path><path id="Tracé_6" data-name="Tracé 6" d="M101.216,0c.116.1.221.26.348.278,3.7.549,6.332,2.5,7.238,6.161a8.638,8.638,0,0,1-2.011,8.548,7.944,7.944,0,0,1-3.922,2.089c-2.6.622-5.236.171-7.852.3a24.209,24.209,0,0,1-2.79-.006c-.778-.053-.956.268-.951.981.025,3.876.012,7.752.008,11.628,0,.3-.031.607-.053,1-1.388,0-2.723.022-4.056-.026-.173-.006-.411-.347-.478-.574a3.332,3.332,0,0,1-.028-.925q0-14.342,0-28.684c0-.258-.017-.516-.026-.773h14.576M91.3,13.367a16.164,16.164,0,0,0,1.689.2c1.755.025,3.515.076,5.265-.016a12.045,12.045,0,0,0,3.21-.571c2.605-.883,3.482-4.624,1.744-6.765-1.169-1.441-2.8-1.691-4.392-1.809-2.285-.169-4.592-.039-6.889-.046-.389,0-.634.072-.633.545.012,2.785.006,5.571.006,8.463" transform="translate(-30.662 0)" fill="#fff"></path></g></g></g><g id="Groupe_6449" data-name="Groupe 6449" transform="translate(144 52)"><g id="Groupe_6289" data-name="Groupe 6289" transform="translate(0 0)" clip-path="url(#clip-path-2)"><path id="Tracé_10" data-name="Tracé 10" d="M10.9,17.82H1.179V13.761h9.5c-1.227-1.3-2.269-2.453-3.361-3.556Q3.862,6.715.361,3.273C-.1,2.821-.107,2.5.368,2.069A20.268,20.268,0,0,0,1.986.439c.462-.524.813-.463,1.278.006,2.64,2.663,5.311,5.3,7.948,7.96.775.783,1.476,1.639,2.21,2.462l.312-.191V1.193h4.114v9.326l.218.105c.7-.675,1.414-1.339,2.1-2.027,2.724-2.717,5.453-5.43,8.148-8.174.581-.592.959-.553,1.467.062A11.257,11.257,0,0,0,31.3,1.959c.559.462.456.814,0,1.269q-3.866,3.824-7.7,7.677c-.869.871-1.711,1.769-2.721,2.817.56.026.882.053,1.2.053,2.576,0,5.152.016,7.727-.009.587-.006.84.163.816.774-.033.827-.038,1.656,0,2.482.031.666-.264.819-.877.813-2.575-.025-5.151-.008-7.727-.007H20.745c1.443,1.469,2.691,2.751,3.952,4.02,2.158,2.171,4.314,4.344,6.493,6.493.5.495.572.864,0,1.349a15.757,15.757,0,0,0-1.575,1.544c-.446.5-.768.413-1.2-.021q-4.9-4.9-9.829-9.774c-.182-.18-.377-.346-.689-.633-.022.489-.049.813-.049,1.136,0,2.607-.018,5.213.008,7.819.005.587-.16.837-.773.811-.827-.038-1.657-.04-2.483,0-.66.029-.823-.255-.816-.873.029-2.545.012-5.09.012-7.635v-.966l-.217-.1c-.794.768-1.6,1.529-2.38,2.306-2.633,2.6-5.278,5.2-7.875,7.835-.624.634-1.035.57-1.526-.074a8.96,8.96,0,0,0-.7-.728c-1.556-1.622-1.374-1.2.036-2.653,3.111-3.2,6.285-6.329,9.433-9.488.058-.058.111-.122.34-.375" transform="translate(0 0)" fill="#fff"></path></g></g></g></svg> 