<?xml version="1.0" encoding="UTF-8"?> <svg xmlns="http://www.w3.org/2000/svg" id="Calque_1" version="1.1" viewBox="0 0 242.1 74.42"><defs><style> .st0 { fill: #323234; } </style></defs><path class="st0" d="M1.56,71.57V1.85h10.46v30.4h29.88V1.85h10.46v69.72h-10.46v-29.97H12.02v29.97H1.56Z"></path><path class="st0" d="M91.06,72.57c-5.05,0-9.53-1.06-13.45-3.19-3.92-2.12-6.97-5.11-9.16-8.96-2.19-3.85-3.29-8.27-3.29-13.25V1.85h10.46v45.02c0,2.99.66,5.69,1.99,8.12,1.33,2.42,3.17,4.32,5.53,5.68,2.36,1.36,5,2.04,7.92,2.04s5.56-.68,7.92-2.04c2.36-1.36,4.2-3.25,5.53-5.68,1.33-2.42,1.99-5.13,1.99-8.12V1.85h10.46v45.32c0,4.98-1.08,9.4-3.24,13.25-2.16,3.85-5.2,6.84-9.11,8.96-3.92,2.13-8.43,3.19-13.55,3.19Z"></path><path class="st0" d="M240.54,59.7l-30.32-18.2h8.33c6.64,0,11.9-1.73,15.79-5.18,3.88-3.45,5.83-9.01,5.83-14.85,0-3.78-.88-7.15-2.64-10.11-1.76-2.95-4.28-5.28-7.57-6.97-3.29-1.69-7.09-2.54-11.4-2.54h-29.08l-.1,70.23h10.46l.1-25.03,40.62,24.89v-12.25ZM199.92,11.71h17.33c3.59,0,6.44.96,8.57,2.89,2.12,1.93,3.19,4.38,3.19,7.37s-1.06,5.53-3.19,7.42c-2.13,1.89-4.98,2.84-8.57,2.84h-17.33V11.71Z"></path><path class="st0" d="M159.99,41.62c6.64,0,11.9-1.73,15.79-5.18,3.88-3.45,5.83-9.01,5.83-14.85,0-3.78-.88-7.15-2.64-10.11-1.76-2.95-4.28-5.28-7.57-6.97-3.29-1.69-7.09-2.54-11.4-2.54h-29.08l-.1,70.23h10.46l.1-30.59h18.63ZM141.36,11.83h17.33c3.59,0,6.44.96,8.57,2.89,2.12,1.93,3.19,4.38,3.19,7.37s-1.06,5.53-3.19,7.42c-2.13,1.89-4.98,2.84-8.57,2.84h-17.33V11.83Z"></path></svg> 